<svg xmlns="http://www.w3.org/2000/svg" width="1054" height="138" viewBox="0 0 1054 138" font-family="ui-monospace,SFMono-Regular,Menlo,monospace">
<rect fill="#0e0c0a" width="1054" height="138" rx="6"/>
<text x="18" y="26" fill="#ebe6de" font-size="15" font-weight="700">CRUX</text><text x="76" y="26" fill="#8a8276" font-size="12.5">height 195 &#183; difficulty 95,870 &#183; 1 knapsack + hash target</text><rect x="18" y="44" width="148" height="76" rx="4" fill="#161310" stroke="#2e2820" stroke-width="1"/><text x="29" y="65" fill="#e08a45" font-size="13" font-weight="700">#190</text><text x="29" y="81" fill="#ebe6de" font-size="10">0000ac2aa859253d&#8230;</text><text x="29" y="96" fill="#5ca3b0" font-size="10.5">@americanvain</text><text x="29" y="110" fill="#8a8276" font-size="9"></text><line x1="166" y1="82.0" x2="192" y2="82.0" stroke="#3a332b" stroke-width="1.5" stroke-dasharray="3 3"/><rect x="192" y="44" width="148" height="76" rx="4" fill="#161310" stroke="#2e2820" stroke-width="1"/><text x="203" y="65" fill="#e08a45" font-size="13" font-weight="700">#191</text><text x="203" y="81" fill="#ebe6de" font-size="10">00004a9876e9408f&#8230;</text><text x="203" y="96" fill="#5ca3b0" font-size="10.5">@americanvain</text><text x="203" y="110" fill="#8a8276" font-size="9"></text><line x1="340" y1="82.0" x2="366" y2="82.0" stroke="#3a332b" stroke-width="1.5" stroke-dasharray="3 3"/><rect x="366" y="44" width="148" height="76" rx="4" fill="#161310" stroke="#2e2820" stroke-width="1"/><text x="377" y="65" fill="#e08a45" font-size="13" font-weight="700">#192</text><text x="377" y="81" fill="#ebe6de" font-size="10">000020c6860315be&#8230;</text><text x="377" y="96" fill="#5ca3b0" font-size="10.5">@americanvain</text><text x="377" y="110" fill="#8a8276" font-size="9"></text><line x1="514" y1="82.0" x2="540" y2="82.0" stroke="#3a332b" stroke-width="1.5" stroke-dasharray="3 3"/><rect x="540" y="44" width="148" height="76" rx="4" fill="#161310" stroke="#2e2820" stroke-width="1"/><text x="551" y="65" fill="#e08a45" font-size="13" font-weight="700">#193</text><text x="551" y="81" fill="#ebe6de" font-size="10">00007e1eeb905147&#8230;</text><text x="551" y="96" fill="#5ca3b0" font-size="10.5">@americanvain</text><text x="551" y="110" fill="#8a8276" font-size="9"></text><line x1="688" y1="82.0" x2="714" y2="82.0" stroke="#3a332b" stroke-width="1.5" stroke-dasharray="3 3"/><rect x="714" y="44" width="148" height="76" rx="4" fill="#161310" stroke="#2e2820" stroke-width="1"/><text x="725" y="65" fill="#e08a45" font-size="13" font-weight="700">#194</text><text x="725" y="81" fill="#ebe6de" font-size="10">000011a0cdd3d034&#8230;</text><text x="725" y="96" fill="#5ca3b0" font-size="10.5">@americanvain</text><text x="725" y="110" fill="#8a8276" font-size="9"></text><line x1="862" y1="82.0" x2="888" y2="82.0" stroke="#3a332b" stroke-width="1.5" stroke-dasharray="3 3"/><rect x="888" y="44" width="148" height="76" rx="4" fill="#161310" stroke="#2e2820" stroke-width="1"/><text x="899" y="65" fill="#e08a45" font-size="13" font-weight="700">#195</text><text x="899" y="81" fill="#ebe6de" font-size="10">00001141ecc383a8&#8230;</text><text x="899" y="96" fill="#5ca3b0" font-size="10.5">@americanvain</text><text x="899" y="110" fill="#8a8276" font-size="9"></text></svg>
