<svg xmlns="http://www.w3.org/2000/svg" width="1054" height="138" viewBox="0 0 1054 138" font-family="ui-monospace,SFMono-Regular,Menlo,monospace">
<rect fill="#f3f1ee" width="1054" height="138" rx="6"/>
<text x="18" y="26" fill="#1a1612" font-size="15" font-weight="700">CRUX</text><text x="76" y="26" fill="#6e675c" font-size="12.5">height 45 &#183; difficulty 64 &#183; 1 knapsack + hash target</text><rect x="18" y="44" width="148" height="76" rx="4" fill="#ffffff" stroke="#d8d2c8" stroke-width="1"/><text x="29" y="65" fill="#9a4a18" font-size="13" font-weight="700">#40</text><text x="29" y="81" fill="#1a1612" font-size="10">02127ac37cda222c&#8230;</text><text x="29" y="96" fill="#1c4f5b" font-size="10.5">@americanvain</text><text x="29" y="110" fill="#6e675c" font-size="9"></text><line x1="166" y1="82.0" x2="192" y2="82.0" stroke="#c4bdb3" stroke-width="1.5" stroke-dasharray="3 3"/><rect x="192" y="44" width="148" height="76" rx="4" fill="#ffffff" stroke="#d8d2c8" stroke-width="1"/><text x="203" y="65" fill="#9a4a18" font-size="13" font-weight="700">#41</text><text x="203" y="81" fill="#1a1612" font-size="10">0009757522b9d3b1&#8230;</text><text x="203" y="96" fill="#1c4f5b" font-size="10.5">@americanvain</text><text x="203" y="110" fill="#6e675c" font-size="9"></text><line x1="340" y1="82.0" x2="366" y2="82.0" stroke="#c4bdb3" stroke-width="1.5" stroke-dasharray="3 3"/><rect x="366" y="44" width="148" height="76" rx="4" fill="#ffffff" stroke="#d8d2c8" stroke-width="1"/><text x="377" y="65" fill="#9a4a18" font-size="13" font-weight="700">#42</text><text x="377" y="81" fill="#1a1612" font-size="10">014b9e55ad662356&#8230;</text><text x="377" y="96" fill="#1c4f5b" font-size="10.5">@americanvain</text><text x="377" y="110" fill="#6e675c" font-size="9"></text><line x1="514" y1="82.0" x2="540" y2="82.0" stroke="#c4bdb3" stroke-width="1.5" stroke-dasharray="3 3"/><rect x="540" y="44" width="148" height="76" rx="4" fill="#ffffff" stroke="#d8d2c8" stroke-width="1"/><text x="551" y="65" fill="#9a4a18" font-size="13" font-weight="700">#43</text><text x="551" y="81" fill="#1a1612" font-size="10">0107b1a091813a43&#8230;</text><text x="551" y="96" fill="#1c4f5b" font-size="10.5">@americanvain</text><text x="551" y="110" fill="#6e675c" font-size="9"></text><line x1="688" y1="82.0" x2="714" y2="82.0" stroke="#c4bdb3" stroke-width="1.5" stroke-dasharray="3 3"/><rect x="714" y="44" width="148" height="76" rx="4" fill="#ffffff" stroke="#d8d2c8" stroke-width="1"/><text x="725" y="65" fill="#9a4a18" font-size="13" font-weight="700">#44</text><text x="725" y="81" fill="#1a1612" font-size="10">002351e0f3755133&#8230;</text><text x="725" y="96" fill="#1c4f5b" font-size="10.5">@americanvain</text><text x="725" y="110" fill="#6e675c" font-size="9"></text><line x1="862" y1="82.0" x2="888" y2="82.0" stroke="#c4bdb3" stroke-width="1.5" stroke-dasharray="3 3"/><rect x="888" y="44" width="148" height="76" rx="4" fill="#ffffff" stroke="#d8d2c8" stroke-width="1"/><text x="899" y="65" fill="#9a4a18" font-size="13" font-weight="700">#45</text><text x="899" y="81" fill="#1a1612" font-size="10">005fd3c913f76f5a&#8230;</text><text x="899" y="96" fill="#1c4f5b" font-size="10.5">@americanvain</text><text x="899" y="110" fill="#6e675c" font-size="9"></text></svg>
